<?xml version="1.0" encoding="utf-8"?>
<!-- Generator: Adobe Illustrator 27.5.0, SVG Export Plug-In . SVG Version: 6.00 Build 0)  -->
<svg version="1.1" id="Capa_1" xmlns="http://www.w3.org/2000/svg" xmlns:xlink="http://www.w3.org/1999/xlink" x="0px" y="0px"
	 viewBox="0 0 2122 2122" style="enable-background:new 0 0 2122 2122;" xml:space="preserve">
<g>
	<path style="fill:#5F774F;" d="M1576.289,1939.023l-0.165-0.463c-56.619-95.018-98.749-196.126-131.365-300.654
		c13.97-5.24,35.256-18.131,50.332-42.584c15.299-24.815,18.815-60.086,16.218-87.734c-1.147-12.218-8.922-45.965-14.537-47.45
		c-5.615-1.485-54.728,61.27-62.773,105.641c-1.542,8.501-2.457,17.446-2.782,26.458c-6.74-23.725-13.042-47.598-18.946-71.6
		c2.976-20.189,13.881-42.579,20.78-55.052c8.304-15.014,36.462-62.465,29.673-69.138c-0.002-0.001-0.002-0.004-0.003-0.005
		c-5.701-5.577-14.779-1.641-23.372,6.177c-6.762,6.152-14.406,3.314-22.377-7.357c-3.926-5.258-5.423-10.971-13.311-10.881
		c-8.496,0.098-10.871,7.173-15.478,13.978c-2.754,4.068-9.176,11.798-19.323,10.673c-10.148-1.125-15.26-7.552-21.69-1.236
		c-0.382,0.376-0.682,0.763-0.973,1.15c-5.543,7.409,5.2,16.966,12.507,26.446c13.083,20.399,27.813,40.306,36.758,61.724
		c1.734,17.138,4.009,34.203,6.726,51.198c-0.73-1.314-1.437-2.658-2.195-3.933c-21.302-35.895-84.165-74.481-88.556-71.38
		c-4.392,3.1-0.244,34.885,2.705,45.855c6.673,24.822,21.108,54.285,42.39,70.874c21.109,16.454,43.904,20.72,57.688,20.7
		c21.109,91.968,55.599,181.075,99.152,265.053c-51.873-54.794-100.631-112.359-145.608-172.76
		c-17.807-42.363-36.553-84.322-52.016-127.675c-22.123-62.028-41.084-124.97-54.398-189.507
		c-9.305-45.101-16.021-90.811-20.669-136.796c15.042-0.511,36.639-5.127,57.243-19.957c23.661-17.029,40.464-48.239,48.694-74.762
		c3.637-11.72,9.429-45.863,4.816-49.392c-4.613-3.528-74.073,35.529-98.554,73.4c-6.004,9.287-11.337,19.63-15.744,30.307
		c-4.125-55.145-5.439-110.549-4.64-165.673c8.208-16.825,21.646-33.119,30.184-42.496c11.551-12.686,49.921-52.338,44.858-60.401
		c-0.001-0.002-0.001-0.004-0.002-0.006c-4.257-6.744-14-5.015-24.167,0.604c-8.001,4.422-14.782-0.108-20.069-12.333
		c-2.604-6.023-2.738-11.928-10.434-13.664c-8.289-1.87-12.236,4.464-18.292,10.019c-3.62,3.321-11.655,9.356-21.268,5.914
		c-9.613-3.441-13.1-10.877-20.816-6.218c-0.459,0.277-0.84,0.584-1.212,0.895c-4.992,4.163-2.42,11.213,1.272,18.829
		c5.552,1.322,10.445,4.284,13.589,10.471c4.194,8.252,3.201,15.415-0.733,21.546c8.151,22.343,15.553,44.664,14.962,67.18
		c-3.066,18.4-5.589,36.86-6.704,55.832c-0.606,10.3-0.903,20.645-1.081,31c-2.414-9.161-5.515-18.125-9.209-26.406
		c-17.004-38.12-74.976-83.724-79.697-81.153c-4.721,2.571-4.281,34.623-2.622,45.86c3.754,25.429,14.681,56.364,33.9,75.305
		c20.433,20.138,44.404,26.588,57.713,27.496c0.177,8.572,0.419,17.132,0.715,25.665c2.284,65.791,9.956,131.208,22.727,195.786
		c12.483,63.12,29.044,126.102,51.812,186.326c2.562,6.777,5.192,13.556,7.855,20.328c-41.368-63.998-79.022-130.476-112.53-199.231
		c-30.016-61.594-56.627-124.304-80.742-187.819c-7.634-40.614-17.045-80.899-22.719-121.959
		c-2.274-16.455-4.176-32.955-5.81-49.482c13.467-11.15,30.747-17.744,47.79-24.844c7.328-2.333,16.394-3.505,16.248-9.41
		c-0.008-0.333,0.072-0.62,0.003-0.984c-1.089-5.71-6.16-4.18-11.953-7.31c-5.793-3.131-6.358-9.587-6.325-12.756
		c0.057-5.3,1.396-9.923-3.073-13.096c-4.149-2.945-7.041-0.465-11.053,0.88c-8.145,2.731-13.24,1.428-14.566-4.318
		c-1.684-7.3-5.052-12.721-10.123-11.858c-0.001,0-0.002,0.002-0.004,0.002c-6.051,1.045-8.549,36.543-9.66,47.552
		c-0.089,0.885-0.142,1.748-0.199,2.614c-1.769-23.569-3.004-47.179-3.755-70.8c-1.156-36.351-1.125-72.709-0.654-109.068
		c13.64,1.777,41.9-0.37,68.499-19.513c23.661-17.029,40.463-48.239,48.693-74.762c3.637-11.72,9.43-45.864,4.816-49.392
		c-4.613-3.529-74.073,35.529-98.554,73.399c-9.995,15.461-18.279,33.793-23.182,51.848c0.698-41.578,1.791-83.158,2.379-124.733
		c0.013-0.037,0.03-0.074,0.042-0.112c6.611-20.372,24.356-41.969,34.731-53.364c11.551-12.686,49.922-52.338,44.858-60.401
		c-0.001-0.001,0-0.004-0.001-0.006c-4.256-6.744-13.999-5.014-24.167,0.605c-8.001,4.421-14.782-0.108-20.069-12.333
		c-2.604-6.023-2.738-11.928-10.433-13.664c-8.288-1.87-12.236,4.464-18.292,10.019c-3.62,3.321-11.655,9.356-21.268,5.914
		c-9.612-3.441-13.1-10.877-20.816-6.218c-0.459,0.277-0.841,0.584-1.213,0.895c-7.106,5.926,1.135,17.708,6.052,28.621
		c11.209,32.009,25.848,63.824,22.639,96.081c0.01,0.155,0.028,0.277,0.039,0.427c-1.939,16.993-3.674,33.999-5.188,51.019
		c-0.989-4.83-2.126-9.589-3.484-14.161c-11.892-40.01-63.428-92.779-68.444-90.845c-5.016,1.934-8.756,33.77-8.575,45.127
		c0.409,25.701,7.213,57.797,23.799,79.08c17.178,22.042,39.357,31.63,52.585,34.548c-3.182,50.995-4.472,102.119-3.791,153.379
		c0.628,47.325,3.235,94.642,8.379,141.697c-16.799-53.443-31.731-107.479-45.052-162.018c-0.568,0.654-1.121,1.286-1.658,1.891
		c-5.677,6.399-11.877,12.008-18.078,17.64c8.009,34.83,16.677,69.525,26.274,104.02c18.619,66.923,40.116,132.848,64.55,197.538
		c-34.92-58.357-71.193-115.801-110.177-171.548c-9.709-13.884-19.573-27.598-29.599-41.144
		c5.918-23.802,21.438-44.576,36.157-65.828c6.327-7.631,15.499-15.226,11.129-21.521c-0.228-0.33-0.466-0.658-0.771-0.981
		c-5.136-5.417-9.556-0.247-17.988,0.385c-8.432,0.633-13.52-5.954-15.68-9.402c-3.613-5.768-5.371-11.694-12.4-12.025
		c-6.526-0.307-7.933,4.378-11.337,8.614c-6.911,8.598-13.322,10.723-18.737,5.432c-6.882-6.724-14.28-10.248-19.162-5.8
		c-0.002,0.001-0.002,0.003-0.003,0.004c-5.817,5.323,16.095,45.425,22.526,58.096c4.07,8.019,8.965,14.495,11.806,23.784
		c-32.079-42.112-65.899-82.454-102.012-120.68c6.777-5.638,17.254-18.178,24.226-36.287c-1.287-6.312-1.551-12.868-0.32-19.739
		c1.208-6.738,3.832-10.691,7.249-12.577c1.464-28.382-10.96-60.123-25.312-82.891c-6.544-10.381-28.729-36.973-34.409-35.76
		c-5.68,1.212-21.137,79.387-8.266,122.605c5.416,18.184,14.353,36.931,25.334,52.687c-13.841-14.285-27.985-28.293-42.527-41.946
		c-0.006-0.008-0.011-0.021-0.018-0.029c-13.082-16.958-16.152-36.289-19.699-51.286c-3.949-16.696-15.012-70.754-24.526-71.128
		c-0.002,0-0.004-0.001-0.006-0.001c-7.97-0.295-12.043,8.723-13.146,20.287c-0.868,9.1-8.435,12.14-21.51,9.601
		c-6.442-1.251-11.391-4.475-17.169,0.896c-6.223,5.785-3.224,12.619-2.058,20.754c0.697,4.862,1.141,14.902-7.126,20.893
		c-8.267,5.991-16.373,4.671-16.885,13.67c-0.03,0.535,0.008,1.024,0.053,1.506c0.88,9.211,15.257,9.061,27.04,11.164
		c32.747,8.821,61.412,12.888,86.224,33.749c0.113,0.068,0.21,0.104,0.321,0.168c19.177,20.87,37.834,42.279,56.049,64.076
		c-15.609-8.189-33.211-14.414-50.096-17.772c-44.229-8.794-120.625,13.872-121.304,19.64c-0.679,5.768,27.862,25.382,38.808,30.932
		c24.768,12.558,58.869,22.227,87.567,17.099c29.516-5.274,49.779-21.454,59.317-32.618
		c42.699,52.286,82.813,106.712,120.676,161.852c38.21,55.644,74.484,112.701,109.743,170.253
		c17.505,28.574,34.733,57.292,52.536,85.681c-8.413-7.165-12.139-15.1-17.981-22.97c-8.47-11.409-34.584-48.91-41.943-46.08
		c-0.001,0-0.004,0-0.005,0c-6.16,2.385-6.306,10.578-3.359,19.737c2.319,7.207-2.443,11.997-13.221,14.345
		c-5.31,1.157-10.131,0.325-12.768,6.303c-2.841,6.438,1.679,10.655,5.229,16.462c2.122,3.471,5.747,10.963,1.419,18.227
		c-4.328,7.265-10.926,8.913-8.37,15.927c0.152,0.418,0.341,0.776,0.533,1.128c3.684,6.719,14.573,1.899,24.226-0.359
		c26.953-3.889,53.828-8.803,78.868-2.04c5.143,8.523,10.322,17.073,15.724,25.482c31.795,67.891,67.406,133.971,106.981,197.924
		c-10.185-9.853-20.297-19.782-30.527-29.588c-44.053-42.229-88.572-83.971-133.54-125.222
		c-22.956-21.058-46.074-42.233-69.455-63.228c-5.95,2.277-11.948,4.46-18.23,6.153c-2.719,0.732-5.811,1.504-9.139,2.25
		c25.496,22.968,50.969,45.916,76.098,69.092c44.875,41.389,89.293,83.276,133.245,125.644
		c22.135,21.335,44.149,42.794,66.044,64.375c16.856,16.613,33.416,34.674,51.708,50.04c34.988,48.962,72.53,96.059,112.557,140.914
		c-5.025-3.275-10.034-6.525-15.002-9.761c-40.665-26.488-82.719-50.886-125.859-73.113c-42.46-21.876-86.418-40.794-131.124-57.584
		c4.955-13.941,8.848-39.146-0.807-66.979c-9.554-27.542-34.659-52.565-57.722-68.033c-10.192-6.835-41.254-22.147-45.954-18.735
		c-4.7,3.412,12.871,81.139,42.163,115.425c8.077,9.454,17.638,18.523,27.889,26.46c-14.85-4.67-29.746-8.812-44.736-12.625
		c-0.066-0.024-0.122-0.066-0.191-0.085c-20.645-5.703-33.738-24.946-45.58-34.807c-13.185-10.978-54.494-47.556-62.326-42.142
		c-0.001,0.001-0.004,0-0.006,0.002c-6.549,4.55-4.39,14.207,1.673,24.116c4.771,7.798,0.546,14.773-11.433,20.595
		c-5.903,2.868-11.796,3.263-13.19,11.028c-1.502,8.364,5.001,12.026,10.819,17.831c3.477,3.469,9.862,11.23,6.849,20.985
		c-3.013,9.756-10.286,13.568-5.291,21.071c0.297,0.447,0.621,0.814,0.947,1.172c6.235,6.837,17.641-1.917,28.326-7.313
		c31.466-12.608,52.514-25.087,85.865-18.877c23.095,9.294,46.068,18.955,68.994,28.244c9.87,3.999,19.667,8.164,29.432,12.4
		c-13.977-0.004-28.196,1.504-41.304,4.452c-43.995,9.897-104.637,61.595-102.919,67.143c1.719,5.548,35.761,11.903,48.017,12.538
		c27.732,1.435,62.825-3.555,86.978-19.88c22.948-15.511,34.9-36.326,39.897-50.507c23.286,10.739,46.335,21.996,69.174,33.683
		c42.365,21.678,83.572,45.579,123.44,71.565c40.729,26.546,77.963,58.634,119.155,84.195c1.635,1.015,3.424,1.342,5.217,1.395
		c10.72,10.093,21.609,20.011,32.606,29.815c0.596,0.988,1.161,1.997,1.76,2.983c1.995,3.287,4.651,4.824,7.397,5.105
		c2.378,2.076,4.7,4.212,7.097,6.268c10.816,9.276,23.131-7.928,13.156-17.396
		C1581.864,1944.671,1579.152,1941.775,1576.289,1939.023z"/>
	<path style="fill:#5F774F;" d="M727.043,449.457c31.099,13.531,64.386,24.415,85.867,48.692c0.573,0.469,1.106,0.875,1.62,1.249
		c18.497,34.552,36.598,69.289,53.611,104.577c-11.772-12.788-25.969-24.424-40.469-33.206
		c-38.571-23.363-118.115-28.136-120.723-22.946c-2.607,5.19,17.525,33.368,25.919,42.32c18.994,20.258,47.747,40.987,76.471,45.962
		c30.892,5.351,56.394-3.963,68.608-11.398c6.493,13.943,12.853,27.954,18.908,42.122c15.834,37.049,31.362,74.262,45.265,112.084
		c4.738,12.891,9.206,26.026,13.755,39.164c12.398-7.212,27.983,2.006,32.639,26.125c1.727-1.328,3.502-2.627,5.312-3.862
		c-8.048-37.715-15.414-75.64-21.954-113.816c-17.52-102.27-30.124-205.212-34.874-308.737c5.13-20.237,19.543-42.122,28.301-54.009
		c10.177-13.813,44.237-57.221,38.368-64.718c-0.001-0.001-0.001-0.004-0.003-0.006c-4.931-6.267-14.443-3.539-23.974,3.102
		c-7.501,5.226-14.714,1.422-21.237-10.191c-3.214-5.721-3.958-11.581-11.792-12.512c-8.438-1.002-11.708,5.706-17.157,11.858
		c-3.257,3.677-10.625,10.511-20.542,8.083c-9.917-2.428-14.154-9.463-21.348-4.031c-0.428,0.323-0.775,0.668-1.113,1.015
		c-6.455,6.63,2.961,17.496,8.981,27.842c12.627,26.786,27.834,53.154,31.588,80.991c-4.441,94.636,8.495,191.922,20.294,284.471
		c2.87,22.521,6.326,44.931,9.794,67.339c-12.506-33.22-25.971-66.079-41.351-98.079c-13.697-28.5-28.128-56.749-43.5-84.473
		c10.75-6.061,33.293-26.898,41.322-61.368c6.613-28.392-1.27-62.95-12.523-88.337c-4.974-11.219-23.077-40.741-28.873-40.363
		c-5.796,0.378-32.403,75.493-25.92,120.119c2.431,16.737,7.594,34.303,14.757,50.099c-14.267-24.697-29.427-48.854-45.576-72.323
		c-6.233-17.048-8.839-36.958-9.875-49.128c-1.455-17.095-4.465-72.192-13.82-73.957c-0.002,0-0.003-0.001-0.005-0.002
		c-7.84-1.461-13.193,6.861-15.981,18.139c-2.194,8.875-10.125,10.77-22.687,6.339c-6.188-2.183-10.611-6.098-17.114-1.633
		c-7.005,4.809-5.042,12.01-5.082,20.228c-0.024,4.912-1.059,14.908-10.116,19.621c-9.058,4.713-16.881,2.217-18.709,11.043
		c-0.109,0.525-0.143,1.013-0.168,1.497C701.452,443.685,715.696,445.647,727.043,449.457z"/>
	<path style="fill:#5F774F;" d="M887.585,1370.182c11.884-3.588,21.94-8.866,30.274-14.67c-0.128-0.896-0.25-1.797-0.315-2.751
		c-1.137-16.75,11.902-25.114,24.854-31.416c-23.386-17.895-20.652-40.31-0.137-44.231c2.446-4.781,4.768-10.247,6.678-16.374
		c-6.461-9.451-10.766-19.955-1.676-27.751c1.923-1.649,4.116-2.545,6.478-2.887c0.019-1.585,0.042-3.167-0.011-4.792
		c-0.955-29.137-17.508-60.479-34.945-82.093c-7.705-9.551-32.828-33.387-38.329-31.522c-5.501,1.864-11.774,81.305,6.03,122.736
		c6.061,14.105,14.444,28.335,24.171,40.869c-14.2-11.473-28.546-22.729-43.062-33.712c-0.025-0.027-0.035-0.059-0.061-0.085
		c-14.963-15.324-17.157-28.601-22.422-43.084c-5.861-16.125-23.128-68.532-32.621-67.798c-0.001,0-0.004-0.001-0.006,0
		c-7.949,0.633-10.948,10.063-10.701,21.677c0.195,9.139-6.968,13.037-20.249,12.034c-6.544-0.495-11.834-3.122-16.949,2.885
		c-5.509,6.469-1.737,12.908,0.367,20.853c1.257,4.749,2.864,14.669-4.652,21.58c-7.515,6.91-15.719,6.541-15.183,15.538
		c0.032,0.535,0.126,1.015,0.228,1.489c1.943,9.047,16.206,7.229,28.154,7.949c33.55,4.957,62.493,5.668,89.56,23.506
		c-0.011-0.032-0.008-0.069-0.018-0.102c19.534,18.859,39.385,37.43,59.414,55.835c-15.359-5.465-32.01-9.043-47.768-10.304
		c-44.95-3.597-118.197,27.788-118.202,33.596c-0.005,5.808,30.622,21.974,42.137,26.215
		C824.684,1372.966,859.678,1378.609,887.585,1370.182z"/>
	<path style="fill:#849469;" d="M774.117,1170.104c-2.019-0.91-3.692,2.041-1.916,3.353c3.296,2.435,6.983,4.136,10.956,5.123
		c4.069,1.01,8.229,0.918,12.38,0.785c2.321-0.075,4.885-0.344,6.989-1.361c2.079-1.002,4.111-2.305,5.92-3.742
		c1.945-1.543,4.13-3.384,5.329-5.576c0.61-1.116,0.979-2.4,0.785-3.691c-0.132-0.495-0.265-0.991-0.397-1.486
		c0.004-0.224-0.011-0.71-0.021-0.805c-0.055-0.502-0.134-1.001-0.22-1.499c-0.269-1.58-1.854-2.574-3.382-1.961
		c-0.652,0.261-1.322,0.456-1.989,0.664c-2.286,0.133-3.866,1.321-5.559,3.175l-0.862,0.941c0.331-0.356,0.235-0.278-0.286,0.234
		c-0.652,0.553-1.286,1.118-1.968,1.634c-0.669,0.506-1.36,0.988-2.075,1.426c-0.096,0.052-0.142,0.077-0.335,0.183
		c-0.663,0.322-1.281,0.709-1.857,1.161c-1.16,0.847-2.303,1.792-3.488,2.401c-2.54,1.307-5.923,1.504-8.735,1.336
		C780.146,1172.204,777.073,1171.435,774.117,1170.104z"/>
	<path style="fill:#849469;" d="M780.889,1195.445c-0.943-0.554-1.791-1.126-2.935-1.232c-1.103-0.101-2.176,0.014-3.21,0.451
		c-1.833,0.774-3.747,2.786-3.777,4.91c-0.022,1.584-0.253,3.141-0.648,4.673c-0.163,0.498-0.354,0.992-0.425,1.493
		c-0.067,0.467-0.02,0.953-0.003,1.436c-0.012,0.967-0.078,1.929-0.23,2.884l-0.099,0.545l-0.766,1.151
		c-1.18,1.627-2.464,3.246-3.999,4.552c-0.719,0.613-0.258,1.85,0.721,1.733c1.818-0.217,3.808-0.621,5.416-1.524
		c0.941-0.527,1.862-1.093,2.728-1.739l0.502-0.389c0.003-0.004-0.003,0,0.001-0.004c0.037-0.015,0.034-0.01,0.092-0.036l1.08-0.559
		c1.017-0.567,2.026-1.165,2.964-1.859l0.902-0.713c1.06-0.918,1.701-2.018,2.255-3.289c0.921-2.108,1.54-4.407,1.845-6.686
		C783.571,1199.233,782.748,1196.537,780.889,1195.445z"/>
	<path style="fill:#849469;" d="M977.877,1623.897c-0.056,0.093-0.083,0.137-0.197,0.325c-0.411,0.612-0.75,1.258-1.02,1.939
		c-0.576,1.315-1.087,2.707-1.804,3.831c-1.537,2.408-4.359,4.282-6.874,5.553c-2.894,1.465-5.936,2.348-9.16,2.686
		c-2.203,0.231-2.161,3.624,0.033,3.862c4.073,0.444,8.116,0.057,12.044-1.092c4.024-1.176,7.571-3.351,11.091-5.557
		c1.967-1.233,4.047-2.758,5.353-4.695c1.291-1.913,2.39-4.062,3.229-6.214c0.904-2.312,1.864-5.003,1.796-7.501
		c-0.035-1.272-0.362-2.567-1.18-3.584l-1.093-1.085c-0.11-0.195-0.367-0.607-0.424-0.684l-0.944-1.185
		c-1.028-1.229-2.898-1.291-3.91,0.009c-0.432,0.554-0.913,1.06-1.384,1.575c-1.907,1.266-2.674,3.088-3.203,5.543l-0.27,1.247
		c0.106-0.474,0.063-0.359-0.13,0.346c-0.285,0.806-0.548,1.613-0.878,2.403C978.63,1622.393,978.275,1623.157,977.877,1623.897z"/>
	<path style="fill:#849469;" d="M981.876,1675.359c0.593-1.002,1.163-2.027,1.624-3.099l0.42-1.07
		c0.453-1.328,0.453-2.6,0.292-3.977c-0.267-2.285-0.89-4.582-1.773-6.706c-0.779-1.872-2.849-3.787-5.005-3.795
		c-1.094-0.003-2.114-0.071-3.155,0.414c-1.004,0.469-1.873,1.108-2.546,2.006c-1.193,1.593-1.834,4.295-0.791,6.145
		c0.779,1.38,1.364,2.841,1.794,4.363c0.111,0.512,0.194,1.035,0.384,1.504l0.721,1.241c0.477,0.842,0.905,1.706,1.253,2.607
		l0.189,0.521c-0.037,0.458-0.037,0.922-0.082,1.38c-0.199,2-0.494,4.046-1.161,5.947c-0.312,0.892,0.709,1.729,1.496,1.134
		c1.461-1.103,2.977-2.454,3.912-4.044c0.548-0.93,1.058-1.882,1.481-2.876l0.237-0.589c0.001-0.005-0.002,0-0.001-0.004
		c0.024-0.032,0.025-0.026,0.061-0.077L981.876,1675.359z"/>
	<path style="fill:#849469;" d="M693.503,754.653c3.923,1.476,8.067,1.868,12.205,2.218c2.314,0.195,4.892,0.226,7.1-0.539
		c2.18-0.754,4.35-1.813,6.313-3.03c2.111-1.307,4.495-2.881,5.94-4.92c0.735-1.038,1.252-2.27,1.209-3.575
		c-0.074-0.507-0.149-1.016-0.222-1.523c0.029-0.222,0.071-0.706,0.072-0.802c0.004-0.505-0.016-1.01-0.044-1.515
		c-0.083-1.6-1.542-2.772-3.131-2.341c-0.678,0.184-1.366,0.299-2.053,0.429c-2.286-0.133-3.992,0.863-5.89,2.508l-0.965,0.835
		c0.37-0.315,0.266-0.249-0.311,0.199c-0.712,0.473-1.407,0.961-2.145,1.394c-0.723,0.424-1.466,0.823-2.227,1.174
		c-0.101,0.041-0.15,0.06-0.355,0.143c-0.695,0.242-1.354,0.555-1.98,0.937c-1.251,0.706-2.495,1.512-3.743,1.98
		c-2.675,1.003-6.058,0.806-8.831,0.312c-3.194-0.567-6.156-1.688-8.938-3.354c-1.9-1.138-3.904,1.599-2.293,3.108
		C686.207,751.094,689.671,753.212,693.503,754.653z"/>
	<path style="fill:#849469;" d="M671.4,791.798c1.831-0.004,3.854-0.174,5.556-0.884c0.996-0.415,1.976-0.87,2.911-1.41l0.543-0.328
		c0.004-0.003-0.002-0.001,0.001-0.003c0.038-0.011,0.035-0.006,0.095-0.026l1.138-0.43c1.076-0.445,2.148-0.922,3.16-1.502
		l0.979-0.603c1.159-0.789,1.923-1.807,2.622-3.004c1.159-1.988,2.04-4.198,2.609-6.426c0.501-1.966-0.003-4.74-1.723-6.04
		c-0.873-0.66-1.648-1.327-2.771-1.565c-1.084-0.228-2.163-0.239-3.24,0.074c-1.91,0.557-4.046,2.332-4.323,4.438
		c-0.205,1.571-0.616,3.09-1.186,4.566c-0.22,0.476-0.467,0.944-0.596,1.433c-0.121,0.456-0.13,0.944-0.169,1.425
		c-0.124,0.959-0.302,1.907-0.563,2.837l-0.162,0.53l-0.895,1.055c-1.36,1.48-2.824,2.938-4.5,4.057
		C670.1,790.519,670.414,791.801,671.4,791.798z"/>
	<path style="fill:#849469;" d="M1097.9,577.782c1.145,2.02,2.576,4.165,4.453,5.555c1.853,1.374,3.952,2.567,6.066,3.501
		c2.27,1.005,4.916,2.084,7.414,2.126c1.272,0.021,2.58-0.249,3.633-1.021l1.131-1.042c0.199-0.101,0.624-0.341,0.703-0.394
		l1.225-0.892c1.274-0.972,1.418-2.838,0.164-3.906c-0.534-0.456-1.018-0.958-1.512-1.451c-1.18-1.962-2.966-2.808-5.396-3.446
		l-1.234-0.325c0.469,0.127,0.356,0.079-0.339-0.145c-0.793-0.32-1.588-0.618-2.362-0.983c-0.759-0.357-1.509-0.746-2.23-1.176
		c-0.091-0.061-0.133-0.089-0.315-0.211c-0.593-0.437-1.223-0.805-1.891-1.105c-1.289-0.634-2.657-1.205-3.748-1.972
		c-2.337-1.642-4.084-4.544-5.243-7.113c-1.335-2.956-2.083-6.034-2.278-9.27c-0.134-2.211-3.525-2.32-3.86-0.138
		c-0.624,4.05-0.416,8.105,0.558,12.081C1093.836,570.527,1095.853,574.168,1097.9,577.782z"/>
	<path style="fill:#849469;" d="M1053.568,573.272c0.905,0.588,1.833,1.14,2.808,1.606l0.577,0.263c0.005,0.001-0.001-0.002,0.004,0
		c0.03,0.025,0.024,0.025,0.074,0.064l0.997,0.697c0.975,0.637,1.974,1.251,3.024,1.76l1.05,0.468
		c1.307,0.511,2.577,0.567,3.96,0.467c2.295-0.166,4.617-0.686,6.778-1.475c1.905-0.696,3.91-2.679,4.013-4.833
		c0.052-1.093,0.165-2.109-0.274-3.171c-0.423-1.024-1.023-1.92-1.891-2.632c-1.538-1.263-4.208-2.023-6.103-1.062
		c-1.413,0.717-2.899,1.236-4.439,1.599c-0.517,0.087-1.043,0.148-1.519,0.317l-1.272,0.665c-0.861,0.439-1.745,0.828-2.66,1.137
		l-0.529,0.166c-0.456-0.057-0.92-0.077-1.376-0.143c-1.989-0.287-4.02-0.673-5.89-1.424c-0.878-0.352-1.758,0.632-1.199,1.444
		C1050.739,570.693,1052.022,572.267,1053.568,573.272z"/>
	<path style="fill:#849469;" d="M953.692,311.951c1.348,1.89,2.993,3.876,5.005,5.064c1.986,1.175,4.197,2.145,6.395,2.854
		c2.362,0.764,5.105,1.564,7.595,1.347c1.267-0.111,2.541-0.514,3.507-1.391l1.017-1.154c0.188-0.121,0.585-0.403,0.659-0.464
		l1.126-1.013c1.166-1.099,1.117-2.969-0.241-3.902c-0.578-0.398-1.112-0.848-1.654-1.288c-1.376-1.829-3.241-2.486-5.723-2.869
		l-1.261-0.196c0.479,0.078,0.362,0.042-0.353-0.109c-0.821-0.237-1.643-0.451-2.451-0.733c-0.792-0.277-1.576-0.586-2.337-0.938
		c-0.097-0.051-0.143-0.075-0.337-0.178c-0.635-0.373-1.3-0.673-1.996-0.904c-1.348-0.497-2.767-0.924-3.931-1.573
		c-2.495-1.391-4.533-4.098-5.952-6.532c-1.633-2.802-2.696-5.786-3.225-8.985c-0.362-2.185-3.745-1.942-3.854,0.263
		c-0.201,4.092,0.425,8.104,1.805,11.958C948.899,305.156,951.281,308.569,953.692,311.951z"/>
	<path style="fill:#849469;" d="M909.132,312.052c0.961,0.491,1.941,0.944,2.958,1.307l0.602,0.203
		c0.005,0.001-0.001-0.002,0.003-0.002c0.033,0.022,0.027,0.023,0.081,0.056l1.064,0.589c1.036,0.533,2.093,1.041,3.19,1.437
		l1.093,0.356c1.352,0.373,2.622,0.298,3.987,0.055c2.266-0.402,4.522-1.16,6.589-2.168c1.822-0.89,3.612-3.069,3.491-5.222
		c-0.061-1.093-0.054-2.115-0.6-3.125c-0.527-0.974-1.217-1.804-2.153-2.423c-1.66-1.096-4.395-1.576-6.18-0.424
		c-1.331,0.86-2.755,1.53-4.249,2.05c-0.505,0.14-1.022,0.254-1.479,0.472l-1.196,0.793c-0.812,0.526-1.65,1.004-2.528,1.406
		l-0.509,0.219c-0.459-0.009-0.924,0.019-1.383,0c-2.008-0.08-4.068-0.252-6.005-0.806c-0.909-0.259-1.683,0.81-1.043,1.561
		C906.05,309.78,907.489,311.213,909.132,312.052z"/>
	<path style="fill:#849469;" d="M750.974,397.867c3.664,2.036,7.706,3.031,11.748,3.986c2.26,0.533,4.806,0.941,7.101,0.508
		c2.268-0.426,4.57-1.155,6.69-2.07c2.28-0.983,4.87-2.19,6.598-3.994c0.88-0.918,1.571-2.062,1.72-3.359
		c0.001-0.513,0.002-1.026,0.004-1.539c0.061-0.215,0.174-0.688,0.189-0.783c0.078-0.499,0.132-1.001,0.179-1.505
		c0.153-1.595-1.118-2.969-2.754-2.775c-0.697,0.082-1.395,0.095-2.092,0.123c-2.241-0.467-4.076,0.268-6.195,1.616l-1.077,0.684
		c0.412-0.257,0.3-0.207-0.337,0.15c-0.773,0.364-1.532,0.745-2.326,1.065c-0.778,0.314-1.571,0.6-2.376,0.836
		c-0.106,0.026-0.157,0.037-0.37,0.089c-0.724,0.138-1.422,0.35-2.096,0.636c-1.34,0.515-2.689,1.13-3.993,1.409
		c-2.793,0.599-6.11-0.093-8.782-0.987c-3.076-1.03-5.842-2.574-8.348-4.629c-1.713-1.405-4.097,1.008-2.724,2.738
		C744.279,393.276,747.395,395.88,750.974,397.867z"/>
	<path style="fill:#849469;" d="M723.658,431.366c1.812,0.264,3.838,0.393,5.626-0.058c1.046-0.264,2.082-0.57,3.086-0.968
		l0.586-0.244c0.004-0.003-0.002-0.001,0.002-0.003c0.039-0.005,0.035,0,0.098-0.011l1.188-0.258c1.13-0.282,2.26-0.598,3.347-1.023
		l1.056-0.452c1.263-0.611,2.168-1.505,3.034-2.587c1.439-1.796,2.635-3.853,3.525-5.974c0.784-1.87,0.693-4.688-0.818-6.228
		c-0.767-0.781-1.436-1.554-2.512-1.954c-1.038-0.385-2.104-0.554-3.216-0.402c-1.972,0.27-4.344,1.713-4.927,3.755
		c-0.434,1.524-1.063,2.967-1.844,4.342c-0.287,0.439-0.6,0.866-0.8,1.331c-0.187,0.434-0.267,0.915-0.377,1.385
		c-0.263,0.931-0.578,1.842-0.973,2.724l-0.238,0.5l-1.04,0.912c-1.562,1.264-3.225,2.492-5.047,3.353
		C722.56,429.909,722.683,431.224,723.658,431.366z"/>
	<path style="fill:#849469;" d="M1035.489,1316.744c3.192,1.152,6.521,1.629,9.908,1.471c3.468-0.162,6.748-1.221,10.011-2.309
		c1.823-0.609,3.795-1.43,5.224-2.734c1.412-1.288,2.716-2.803,3.811-4.372c1.178-1.685,2.477-3.663,2.909-5.688
		c0.22-1.03,0.209-2.136-0.251-3.115l-0.667-1.085c-0.05-0.178-0.178-0.561-0.208-0.634l-0.53-1.138
		c-0.587-1.19-2.081-1.604-3.148-0.756c-0.456,0.362-0.941,0.675-1.421,0.998c-1.782,0.646-2.754,1.964-3.66,3.836l-0.46,0.951
		c0.178-0.361,0.121-0.276-0.172,0.254c-0.387,0.593-0.755,1.192-1.175,1.763c-0.417,0.568-0.857,1.123-1.329,1.646l-0.204,0.201
		c-0.449,0.412-0.849,0.866-1.199,1.361c-0.72,0.946-1.403,1.967-2.199,2.731c-1.707,1.638-4.344,2.596-6.616,3.129
		c-2.615,0.614-5.235,0.732-7.897,0.375C1034.398,1313.386,1033.769,1316.124,1035.489,1316.744z"/>
	<path style="fill:#849469;" d="M1039.76,1352.504c-0.426,0.657,0.233,1.53,0.983,1.205c1.391-0.603,2.875-1.395,3.937-2.491
		c0.622-0.642,1.219-1.309,1.753-2.026l0.307-0.428l0.064-0.053l0.724-0.699c0.673-0.691,1.332-1.406,1.912-2.178l0.547-0.779
		c0.624-0.98,0.872-2.004,1.011-3.144c0.232-1.891,0.178-3.862-0.119-5.743c-0.262-1.659-1.554-3.605-3.288-4.031
		c-0.88-0.217-1.688-0.469-2.621-0.282c-0.899,0.181-1.723,0.526-2.441,1.117c-1.271,1.049-2.314,3.098-1.835,4.791
		c0.358,1.262,0.543,2.553,0.593,3.862l0.016,1.286l0.338,1.14c0.219,0.77,0.395,1.55,0.5,2.343l0.05,0.457l-0.335,1.095
		C1041.304,1349.515,1040.668,1351.104,1039.76,1352.504z"/>
	<path style="fill:#849469;" d="M926.714,936.898c-0.6,0.093-1.184,0.248-1.753,0.466c-0.173,0.057-0.215,0.071-0.3,0.099
		c-0.67,0.185-1.353,0.33-2.037,0.448c-0.698,0.121-1.399,0.184-2.102,0.266c-0.605,0.026-0.706,0.039-0.303,0.041l-1.057-0.012
		c-2.079-0.026-3.692,0.257-5.066,1.564c-0.503,0.285-1,0.58-1.527,0.827c-1.236,0.577-1.531,2.098-0.728,3.155l0.782,0.981
		c0.052,0.06,0.338,0.345,0.475,0.469l0.673,1.082c0.67,0.848,1.656,1.351,2.676,1.615c2.004,0.516,4.354,0.237,6.388-0.066
		c1.892-0.28,3.831-0.771,5.613-1.46c1.805-0.697,3.419-2.095,4.778-3.455c2.43-2.435,4.841-4.898,6.533-7.93
		c1.653-2.961,2.711-6.153,3.104-9.524c0.212-1.816-2.519-2.475-3.112-0.739c-0.868,2.541-2.142,4.834-3.859,6.9
		c-1.491,1.795-3.524,3.729-5.752,4.525C929.101,936.52,927.883,936.676,926.714,936.898z"/>
	<path style="fill:#849469;" d="M961.731,951.068l0.941-0.142c0.95-0.175,1.883-0.445,2.802-0.74l0.949-0.336
		c0.048-0.02,0.044-0.021,0.074-0.035c0.003,0-0.002,0.002,0.003,0.002l0.519-0.083c0.881-0.158,1.743-0.395,2.595-0.665
		c1.455-0.462,2.826-1.436,3.986-2.412c0.626-0.526,0.138-1.505-0.64-1.417c-1.658,0.188-3.364,0.049-5.016-0.16l-1.13-0.188
		l-0.386-0.249c-0.662-0.448-1.282-0.952-1.873-1.493l-0.87-0.811l-1.143-0.588c-1.149-0.629-2.222-1.37-3.191-2.254
		c-1.301-1.184-3.601-1.165-5.107-0.495c-0.85,0.378-1.526,0.961-2.089,1.685c-0.583,0.751-0.717,1.588-0.916,2.472
		c-0.393,1.742,0.772,3.766,2.14,4.741c1.551,1.105,3.291,2.031,5.087,2.669C959.548,950.954,960.576,951.189,961.731,951.068z"/>
	<path style="fill:#849469;" d="M1256.502,947.423c1.145,2.02,2.576,4.165,4.454,5.555c1.854,1.374,3.952,2.567,6.065,3.5
		c2.27,1.005,4.916,2.084,7.415,2.126c1.271,0.021,2.58-0.249,3.633-1.021l1.131-1.043c0.199-0.101,0.624-0.341,0.703-0.394
		l1.225-0.891c1.274-0.972,1.418-2.838,0.164-3.906c-0.534-0.456-1.018-0.959-1.513-1.452c-1.18-1.962-2.966-2.808-5.396-3.445
		l-1.234-0.325c0.469,0.127,0.356,0.079-0.34-0.145c-0.792-0.32-1.588-0.618-2.362-0.983c-0.759-0.357-1.509-0.746-2.229-1.176
		c-0.091-0.061-0.133-0.089-0.315-0.211c-0.593-0.437-1.223-0.805-1.891-1.105c-1.289-0.634-2.657-1.205-3.748-1.972
		c-2.338-1.642-4.084-4.544-5.244-7.112c-1.335-2.956-2.082-6.034-2.278-9.271c-0.134-2.211-3.524-2.32-3.86-0.138
		c-0.623,4.05-0.416,8.105,0.559,12.081C1252.438,940.168,1254.454,943.809,1256.502,947.423z"/>
	<path style="fill:#849469;" d="M1212.17,942.913c0.905,0.588,1.833,1.14,2.808,1.607l0.577,0.263c0.005,0.001,0-0.003,0.004-0.001
		c0.031,0.026,0.025,0.026,0.075,0.064l0.997,0.696c0.975,0.637,1.974,1.251,3.024,1.76l1.05,0.468
		c1.306,0.511,2.577,0.568,3.96,0.467c2.295-0.166,4.618-0.686,6.777-1.474c1.905-0.696,3.91-2.679,4.013-4.833
		c0.052-1.093,0.164-2.109-0.274-3.171c-0.423-1.024-1.024-1.92-1.891-2.633c-1.538-1.262-4.209-2.023-6.103-1.062
		c-1.412,0.717-2.899,1.237-4.438,1.599c-0.517,0.088-1.043,0.148-1.52,0.317l-1.272,0.665c-0.862,0.44-1.745,0.828-2.66,1.137
		l-0.529,0.166c-0.456-0.057-0.921-0.077-1.376-0.143c-1.989-0.287-4.019-0.673-5.89-1.423c-0.877-0.352-1.758,0.632-1.199,1.444
		C1209.341,940.334,1210.624,941.909,1212.17,942.913z"/>
	<path style="fill:#849469;" d="M1414.839,1415.694c1.581,1.7,3.47,3.456,5.618,4.374c2.121,0.908,4.439,1.583,6.711,2.003
		c2.441,0.452,5.264,0.89,7.705,0.353c1.242-0.274,2.453-0.839,3.298-1.834l0.86-1.276c0.171-0.145,0.528-0.475,0.593-0.545
		l0.985-1.151c1.015-1.241,0.723-3.089-0.743-3.839c-0.625-0.32-1.212-0.697-1.807-1.063c-1.602-1.636-3.536-2.046-6.046-2.104
		l-1.276-0.03c0.485,0.015,0.364-0.005-0.364-0.062c-0.845-0.129-1.688-0.234-2.525-0.41c-0.821-0.172-1.639-0.377-2.44-0.629
		c-0.103-0.038-0.151-0.056-0.357-0.132c-0.678-0.288-1.376-0.5-2.096-0.638c-1.4-0.319-2.863-0.559-4.102-1.052
		c-2.654-1.057-5.025-3.477-6.747-5.707c-1.983-2.567-3.422-5.389-4.36-8.492c-0.641-2.119-3.965-1.442-3.787,0.759
		c0.33,4.084,1.47,7.981,3.338,11.624C1409.207,1409.576,1412.011,1412.651,1414.839,1415.694z"/>
	<path style="fill:#849469;" d="M1370.666,1421.559c1.016,0.363,2.047,0.685,3.103,0.913l0.623,0.122
		c0.005,0-0.001-0.002,0.003-0.001c0.036,0.017,0.029,0.019,0.087,0.045l1.131,0.446c1.096,0.394,2.21,0.761,3.349,1.013l1.13,0.212
		c1.389,0.195,2.639-0.044,3.961-0.461c2.195-0.691,4.333-1.736,6.253-3.002c1.693-1.118,3.185-3.51,2.786-5.63
		c-0.202-1.075-0.328-2.09-0.999-3.021c-0.649-0.898-1.44-1.631-2.449-2.124c-1.789-0.873-4.563-0.994-6.183,0.379
		c-1.208,1.025-2.534,1.873-3.948,2.582c-0.483,0.204-0.98,0.385-1.405,0.66l-1.084,0.942c-0.737,0.627-1.506,1.209-2.325,1.721
		l-0.476,0.284c-0.457,0.05-0.913,0.137-1.372,0.179c-2.001,0.181-4.066,0.275-6.059-0.023c-0.935-0.139-1.565,1.022-0.833,1.682
		C1367.317,1419.705,1368.929,1420.94,1370.666,1421.559z"/>
	<path style="fill:#849469;" d="M1085.087,977.687l-0.013,0.992c0.083,0.838,0.517,1.582,1.075,2.183
		c1.097,1.181,2.754,1.986,4.215,2.643c1.358,0.612,2.835,1.105,4.294,1.402c1.476,0.302,3.122,0.065,4.585-0.256
		c2.616-0.575,5.233-1.175,7.616-2.451c2.328-1.246,4.364-2.894,6.039-4.937c0.903-1.102-0.611-2.682-1.729-1.794
		c-1.637,1.301-3.436,2.268-5.431,2.901c-1.732,0.55-3.877,0.963-5.672,0.548c-0.838-0.194-1.701-0.604-2.561-0.949
		c-0.432-0.192-0.88-0.335-1.345-0.432c-0.136-0.035-0.168-0.043-0.236-0.061c-0.517-0.16-1.027-0.353-1.526-0.563
		c-0.508-0.215-0.994-0.468-1.489-0.71l-0.216-0.101l-0.688-0.452c-1.353-0.891-2.528-1.384-3.979-1.105
		c-0.449-0.025-0.899-0.04-1.348-0.1c-1.053-0.141-1.886,0.731-1.804,1.762l0.1,0.972
		C1084.982,977.241,1085.05,977.548,1085.087,977.687z"/>
	<path style="fill:#849469;" d="M1120.429,1000.07l-0.149-0.325c-0.246-0.573-0.44-1.164-0.6-1.767l-0.229-0.897l-0.502-0.866
		c-0.49-0.895-0.881-1.832-1.145-2.819c-0.355-1.323-1.87-2.277-3.139-2.471c-0.715-0.109-1.405-0.011-2.078,0.227
		c-0.698,0.247-1.137,0.739-1.639,1.235c-0.989,0.977-1.077,2.793-0.59,4.008c0.552,1.377,1.303,2.716,2.212,3.888
		c0.548,0.707,1.122,1.293,1.931,1.699l0.677,0.303c0.696,0.285,1.422,0.499,2.148,0.693l0.763,0.179
		c0.04,0.008,0.038,0.005,0.063,0.008c0.002,0.002-0.001,0,0.001,0.002l0.375,0.164c0.644,0.266,1.309,0.474,1.981,0.655
		c1.148,0.309,2.457,0.247,3.627,0.095c0.631-0.082,0.723-0.928,0.177-1.198c-1.166-0.573-2.226-1.382-3.22-2.213L1120.429,1000.07z
		"/>
	<path style="fill:#8292CA;" d="M765.029,1013.784c-32.356-20.972-36.912,34.822-23.972,55.338
		c-10.573-8.745-27.036-29.705-42.018-23.034c-22.854,10.176-2.166,43.586,1.624,57.555c-39.791-23.986-64.19,6.565-37.758,42.996
		c-17.162,2.82-35.137,7.996-39.604,27.769c-10.302,45.599,57.511,53.02,88.868,53.859c11.251,0.301,22.187-0.717,33.179-1.594
		c-0.102-0.473-0.196-0.953-0.228-1.489c-0.536-8.998,7.668-8.628,15.183-15.538c7.516-6.911,5.909-16.831,4.652-21.58
		c-2.103-7.945-5.876-14.384-0.367-20.853c5.115-6.006,10.405-3.38,16.949-2.885c13.282,1.003,20.444-2.895,20.249-12.034
		c-0.247-11.615,2.751-21.044,10.701-21.677c0.002,0,0.005,0,0.006,0c-2.567-11.691-5.028-23.404-7.821-34.972
		C797.471,1065.827,792.745,1031.749,765.029,1013.784z"/>
	<path style="fill:#8292CA;" d="M972.084,1584.796c0.002-0.002,0.005-0.001,0.006-0.002c-8.106-8.808-16.131-17.688-24.37-26.275
		c-21.239-22.137-42.485-49.197-75.477-50.758c-38.516-1.823-14.352,48.674,7.159,59.881c-13.538-2.23-38.317-12.047-47.901,1.262
		c-14.619,20.301,20.08,38.746,30.39,48.905c-46.456-0.682-52.149,38-10.966,56.162c-13.406,11.08-26.328,24.604-20.229,43.936
		c14.065,44.583,76.388,16.84,103.9,1.774c9.872-5.406,18.807-11.793,27.861-18.087c-0.326-0.358-0.65-0.725-0.947-1.172
		c-4.995-7.503,2.279-11.315,5.291-21.071c3.012-9.755-3.372-17.516-6.849-20.985c-5.818-5.805-12.321-9.467-10.819-17.831
		c1.394-7.764,7.287-8.16,13.19-11.028c11.98-5.822,16.204-12.797,11.433-20.595
		C967.694,1599.003,965.535,1589.346,972.084,1584.796z"/>
	<path style="fill:#8292CA;" d="M650.31,796.526c0.512-8.999,8.617-7.679,16.885-13.67c8.268-5.991,7.824-16.031,7.126-20.893
		c-1.166-8.135-4.165-14.969,2.058-20.754c5.778-5.371,10.727-2.148,17.169-0.896c13.075,2.539,20.642-0.5,21.51-9.601
		c1.103-11.564,5.176-20.582,13.146-20.287c0.002,0,0.004,0.001,0.006,0.001c-1.191-11.91-2.276-23.83-3.706-35.643
		c-3.688-30.456-4.423-64.851-29.866-85.914c-29.702-24.589-40.707,30.299-30.238,52.179c-9.486-9.914-23.403-32.644-39.059-27.758
		c-23.881,7.453-7.214,43.04-5.072,57.354c-36.736-28.445-64.518-0.935-42.497,38.32c-17.374,0.808-35.828,3.861-42.561,22.982
		c-15.527,44.094,50.965,59.341,82.012,63.816c11.14,1.606,22.119,1.865,33.139,2.271C650.318,797.55,650.28,797.062,650.31,796.526
		z"/>
	<path style="fill:#8292CA;" d="M1094.268,544.731c7.696,1.736,7.83,7.641,10.433,13.664c5.287,12.226,12.068,16.755,20.069,12.333
		c10.168-5.619,19.911-7.348,24.167-0.605c0.001,0.002,0,0.005,0.001,0.006c9.158-7.709,18.384-15.333,27.327-23.184
		c23.054-20.239,51.028-40.266,54.048-73.157c3.524-38.397-47.991-16.491-60.139,4.504c2.827-13.426,13.73-37.747,0.858-47.91
		c-19.635-15.503-39.597,18.347-50.202,28.197c2.736-46.381-35.656-53.779-55.622-13.44c-10.475-13.884-23.415-27.391-42.998-22.153
		c-45.161,12.079-20.203,75.568-6.368,103.72c4.965,10.102,10.95,19.31,16.837,28.635c0.372-0.31,0.754-0.618,1.213-0.895
		c7.716-4.658,11.203,2.777,20.816,6.218c9.613,3.441,17.648-2.594,21.268-5.914
		C1082.032,549.195,1085.979,542.861,1094.268,544.731z"/>
	<path style="fill:#8292CA;" d="M886.499,296.379c0.338-0.347,0.686-0.692,1.113-1.015c7.193-5.432,11.431,1.603,21.348,4.031
		c9.917,2.428,17.285-4.406,20.542-8.083c5.449-6.152,8.719-12.861,17.157-11.858c7.834,0.93,8.578,6.79,11.792,12.512
		c6.523,11.613,13.736,15.416,21.237,10.191c9.531-6.641,19.043-9.369,23.974-3.102c0.002,0.001,0.001,0.004,0.003,0.006
		c8.311-8.615,16.699-17.152,24.782-25.887c20.836-22.516,46.588-45.33,46.187-78.357c-0.467-38.556-49.44-11.437-59.35,10.702
		c1.422-13.647,9.751-38.966-4.104-47.742c-21.133-13.388-37.485,22.344-47.015,33.239c-2.076-46.415-41.028-49.801-56.713-7.612
		c-11.856-12.725-26.124-24.821-45.06-17.585c-43.668,16.687-12.275,77.253,4.398,103.822
		C872.773,279.175,879.679,287.714,886.499,296.379z"/>
	<path style="fill:#8292CA;" d="M669.487,427.334c10.783,3.224,21.606,5.091,32.447,7.11c0.025-0.484,0.059-0.972,0.168-1.497
		c1.828-8.826,9.651-6.331,18.709-11.043c9.057-4.713,10.091-14.709,10.116-19.621c0.04-8.218-1.923-15.418,5.082-20.228
		c6.504-4.465,10.926-0.55,17.114,1.633c12.561,4.431,20.492,2.535,22.687-6.339c2.789-11.277,8.142-19.599,15.981-18.139
		c0.002,0,0.004,0.002,0.005,0.002c0.569-11.956,1.247-23.905,1.566-35.801c0.823-30.667,5.143-64.798-16.932-89.366
		c-25.771-28.681-44.713,23.996-37.569,47.176c-7.928-11.199-18.358-35.726-34.561-33.191
		c-24.717,3.867-13.453,41.514-13.436,55.988c-32.163-33.529-63.682-10.395-47.661,31.667c-17.304-1.751-36.006-1.439-45.474,16.486
		C575.899,393.508,639.434,418.349,669.487,427.334z"/>
	<path style="fill:#8292CA;" d="M991.985,1191.724c-30.645-8.981-21.047,36.376-5.92,49.594
		c-8.51-3.608-22.027-12.706-32.324-11.217c-2.361,0.342-4.554,1.238-6.478,2.887c-9.09,7.796-4.785,18.3,1.676,27.751
		c4.717,6.9,10.577,13.242,13.243,17.541c-7.826-2.019-14.466-2.21-19.921-1.167c-20.514,3.921-23.248,26.336,0.137,44.231
		c-12.953,6.302-25.991,14.666-24.854,31.416c0.065,0.954,0.187,1.856,0.315,2.751c4.498,31.424,47.202,27.165,73.828,21.196
		c3.328-0.746,6.42-1.517,9.139-2.25c6.282-1.693,12.28-3.875,18.23-6.153c2.575-0.985,5.151-1.973,7.723-2.969
		c-0.193-0.352-0.381-0.711-0.533-1.128c-2.556-7.013,4.042-8.662,8.37-15.927c4.328-7.264,0.703-14.756-1.419-18.227
		c-3.55-5.807-8.07-10.024-5.229-16.462c2.637-5.978,7.458-5.146,12.768-6.303c10.778-2.349,15.54-7.138,13.221-14.345
		c-2.947-9.159-2.801-17.352,3.359-19.737c0.001-0.001,0.004,0,0.005,0c-4.805-8.671-9.532-17.384-14.489-25.903
		C1030.056,1225.343,1018.235,1199.418,991.985,1191.724z"/>
	<path style="fill:#8292CA;" d="M857.633,818.174c-3.417,1.886-6.041,5.839-7.249,12.577c-1.231,6.87-0.967,13.427,0.32,19.739
		c3.759,18.425,16.343,34.75,26.737,50.564c5.413,8.236,11.102,16.354,16.718,24.523c0.001-0.001,0.001-0.003,0.003-0.004
		c4.882-4.448,12.281-0.924,19.162,5.8c5.416,5.291,11.826,3.166,18.737-5.432c3.404-4.236,4.811-8.921,11.337-8.614
		c7.03,0.33,8.787,6.256,12.4,12.025c2.159,3.448,7.248,10.034,15.68,9.402c8.432-0.633,12.852-5.802,17.988-0.385
		c0.306,0.323,0.543,0.651,0.771,0.981c0.556-0.506,1.11-1.013,1.666-1.518c6.201-5.632,12.4-11.241,18.078-17.64
		c0.537-0.606,1.091-1.237,1.658-1.891c17.629-20.335,48.437-63.352,16.078-82.323c-12.293-7.207-23.731-2.569-33.893,4.365
		c-1.81,1.235-3.585,2.534-5.312,3.862c-4.656-24.12-20.242-33.337-32.639-26.125c-6.415,3.732-11.993,11.784-14.728,24.617
		c-6.301-10.198-14.791-41.616-33.879-33.559c-12.513,5.282-9.159,27.1-9.857,38.441C893.42,832.309,870.158,811.26,857.633,818.174
		z"/>
	<path style="fill:#8292CA;" d="M1307.539,939.766c0.001,0.002,0,0.004,0.002,0.006c9.158-7.708,18.384-15.333,27.327-23.184
		c23.054-20.239,51.028-40.266,54.047-73.157c3.525-38.397-47.991-16.491-60.139,4.504c2.826-13.427,13.73-37.747,0.858-47.91
		c-19.635-15.503-39.597,18.346-50.202,28.196c2.737-46.38-35.656-53.779-55.622-13.44c-10.476-13.883-23.415-27.39-42.998-22.153
		c-45.161,12.079-20.203,75.568-6.368,103.72c4.964,10.101,10.95,19.31,16.837,28.634c0.372-0.31,0.753-0.617,1.212-0.895
		c7.716-4.658,11.203,2.777,20.816,6.218c9.612,3.441,17.648-2.594,21.268-5.914c6.056-5.556,10.003-11.89,18.292-10.019
		c7.696,1.736,7.829,7.641,10.434,13.664c5.286,12.226,12.068,16.755,20.069,12.333
		C1293.539,934.752,1303.282,933.022,1307.539,939.766z"/>
	<path style="fill:#8292CA;" d="M1519.61,1283.897c-5.452-38.172-50.504-4.944-57.467,18.291
		c-0.355-13.716,4.628-39.899-10.245-46.81c-22.688-10.541-34.28,27.007-42.319,39.043c-8.065-45.756-47.127-44.074-57.222-0.211
		c-13.402-11.084-29.115-21.232-46.956-11.607c-41.143,22.197-2.177,78.192,17.794,102.381c7.166,8.679,15.119,16.253,23.002,23.963
		c0.29-0.388,0.591-0.774,0.973-1.15c6.43-6.317,11.542,0.111,21.69,1.236c10.148,1.125,16.57-6.605,19.323-10.673
		c4.607-6.806,6.982-13.88,15.478-13.978c7.889-0.09,9.385,5.624,13.311,10.881c7.971,10.671,15.616,13.509,22.377,7.357
		c8.593-7.818,17.671-11.754,23.372-6.177c0.001,0.002,0.001,0.004,0.003,0.005c7.127-9.617,14.339-19.169,21.224-28.875
		C1501.697,1342.549,1524.28,1316.594,1519.61,1283.897z"/>
	<path style="fill:#8292CA;" d="M1192.554,943.811c-4.907-1.169-10.325-1.067-15.568-0.62c10.757-26.962-9.335-42.2-30.415-20.904
		c0.158-9.334,7.802-33.498-8.098-36.241c-10.423-1.799-17.398,13.912-22.624,21.054c4.843-14.875-6.841-49.038-23.749-30.802
		c-14.485,15.62-12.044,37.674-11.824,57.459c0.085,7.675,0.401,15.388,0.647,23.104c0.002,0,0.003-0.002,0.004-0.002
		c5.07-0.863,8.438,4.558,10.123,11.858c1.325,5.745,6.42,7.048,14.566,4.318c4.013-1.345,6.904-3.825,11.053-0.88
		c4.469,3.173,3.13,7.796,3.073,13.096c-0.034,3.168,0.532,9.625,6.325,12.756c5.793,3.131,10.864,1.6,11.953,7.31
		c0.069,0.364-0.011,0.651-0.003,0.984c7.044-1.199,14.074-2.295,21.092-4.274c13.493-3.804,37.419-12.361,46.301-26.198
		c3.934-6.131,4.928-13.294,0.733-21.546C1202.999,948.096,1198.106,945.133,1192.554,943.811z"/>
	<path style="fill:#92A9D8;" d="M779.318,1035.23c-3.303-6.121-12.074-20.151-19.9-20.746c-9.248-0.703-0.074,10.257-3.305,15.268
		c-3.096-1.589-7.37-7.655-11.48-7.114c-5.623,0.739-6.148,12.28-5.27,16.602c1.773,8.733,4.839,18.707,7.926,27.077
		c3.946,10.698,16.415,25.856,11.519,37.713c-4.517-2.424-7.878-9.741-10.909-14.085c-4.001-5.735-7.817-11.819-12.403-17.105
		c-4.96-5.716-14.067-16.644-21.778-18.104c0.302,4.152,3.341,7.671,2.158,11.917c-4.845-5.162-25.357-20.049-22.484-3.976
		c1.562,8.738,4.554,18.533,8.448,26.437c3.865,7.843,17.022,19.932,14.673,28.997c-4.464,0.178-8.595-5.81-12.06-8.297
		c-3.183-2.283-6.959-4.476-10.542-6.08c-4.015-1.797-16.103-5.519-19.916-2.899c1.759,4.99,8.257,7.766,7.48,13.789
		c-5,0.56-18.444-12.782-20.958-1.911c-2.419,10.458,11.991,17.458,10.89,27.895c-2.33-0.566-4.268-2.184-6.765-1.903
		c-3.054,7.915,20.217,13.919,17.319,23.373c-3.458-0.506-6.771-3.177-10.409-4.227c-3.73-1.077-8.055-1.567-11.925-1.912
		c-4.32-0.386-17.03-1.746-18.843,3.419c-1.752,4.991,6.628,6.141,5.719,11.469c-0.995,5.827-17.1,0.717-15.048,10.061
		c6.486,2.495,11.067,4.168,18.106,5.109c4.311,0.576,26.537,8.076,19.421,15.101c-6.121,0.124-21.919-4.814-26.885-0.308
		c-4.047,3.673,1.384,5.224,5.469,6.582c15.762,5.24,32.478,7.879,48.693,11.36c12.369,2.655,28.052,5.438,40.164,0.183
		c4.796-2.081,10.131-5.832,5.585-11.132c-3.696-4.309-18.222-3.744-18.206-10.856c5.474-4.162,16.732,4.879,24.009,0.698
		c-1.141-10.039-19.882-14.906-27.82-18.031c-6.212-2.446-25.076-5.825-26.667-13.945c5.446-1.391,14.093,2.58,19.141,4.286
		c7.574,2.559,14.766,6.723,22.556,8.558c3.827,0.901,10.559,3.028,12.131-2.186c1.284-4.26-6.894-8.332-7.375-12.594
		c4.235-3.654,17.268,6.026,14.489-5.667c-1.168-4.918-9.676-12.332-12.782-15.798c-4.727-5.276-15.188-14.16-13.505-22.238
		c7.368-1.205,13.593,9.259,17.516,13.948c6.561,7.842,14.176,17.232,25.204,16.27c-0.032-4.414-9.291-23.534-0.513-24.264
		c7.065-0.587,11.854,14.032,19.081,15.81c5.779-2.998-5.382-18.627-4.198-24.262c1.307-6.221,4.872-3.767,7.971-0.196
		c2.374,2.736,4.019,10.374,7.908,11.241c2.65,0.591,4.707-0.773,4.763-4.085c-6.037-15.424-6.437-33.224-10.969-49.198
		C790.823,1061.461,786.125,1047.845,779.318,1035.23z"/>
	<path style="fill:#92A9D8;" d="M928.88,1545.918c-10.342-9.96-21.257-19.356-33.492-26.827c-5.935-3.625-20.579-11.328-27.64-7.901
		c-8.344,4.05,5.101,8.898,4.834,14.855c-3.475,0.187-10.222-2.902-13.501-0.365c-4.485,3.471,0.873,13.706,3.808,16.997
		c5.93,6.652,13.602,13.724,20.484,19.401c8.797,7.255,27.203,14.07,28.945,26.779c-5.124,0.182-11.712-4.448-16.519-6.674
		c-6.346-2.94-12.705-6.274-19.33-8.531c-7.164-2.441-20.535-7.295-27.932-4.672c2.352,3.435,6.75,4.945,7.866,9.208
		c-6.785-2.019-32.004-4.55-21.427,7.888c5.75,6.763,13.268,13.717,20.614,18.585c7.289,4.829,24.744,8.647,27.28,17.661
		c-3.767,2.402-10.351-0.69-14.597-1.093c-3.9-0.37-8.266-0.363-12.169,0.057c-4.374,0.47-16.692,3.343-18.667,7.526
		c4.033,3.425,11.045,2.551,13.407,8.145c-4.037,3.002-22.372-1.754-19.069,8.904c3.177,10.253,19.151,9.044,23.457,18.615
		c-2.298,0.684-4.787,0.262-6.803,1.762c1.348,8.376,24.476,1.843,26.734,11.47c-3.243,1.305-7.449,0.666-11.121,1.59
		c-3.765,0.948-7.748,2.703-11.265,4.354c-3.926,1.842-15.592,7.067-14.557,12.444c1,5.193,8.819,1.967,10.716,7.028
		c2.075,5.535-14.412,9.231-7.933,16.271c6.86-1.111,11.66-1.973,18.216-4.705c4.014-1.673,26.993-6.387,24.384,3.265
		c-5.226,3.189-21.362,6.88-23.381,13.274c-1.646,5.212,3.826,3.816,8.039,2.932c16.256-3.412,32.026-9.551,47.788-14.71
		c12.024-3.935,26.973-9.43,34.791-20.069c3.096-4.214,5.815-10.142-0.782-12.43c-5.363-1.86-17.628,5.943-21.196-0.209
		c2.634-6.353,16.913-4.211,21.094-11.488c-6.042-8.098-24.684-2.865-33.116-1.567c-6.599,1.016-24.597,7.596-30.061,1.383
		c4.004-3.944,13.475-4.869,18.694-5.938c7.832-1.604,16.143-1.629,23.797-3.967c3.76-1.148,10.647-2.702,9.379-7.998
		c-1.036-4.328-10.152-3.726-12.714-7.166c1.819-5.289,17.953-3.491,9.664-12.193c-3.486-3.66-14.57-5.78-18.999-7.211
		c-6.741-2.178-20.253-4.584-22.867-12.41c5.758-4.752,16.405,1.153,22.157,3.228c9.618,3.47,20.926,7.748,29.969,1.363
		c-2.251-3.797-19.879-15.653-12.664-20.703c5.808-4.064,17.307,6.152,24.447,4.049c3.483-5.5-14.031-13.381-15.846-18.846
		c-2.004-6.032,2.312-5.708,6.788-4.183c3.429,1.168,8.696,6.939,12.493,5.728c2.587-0.824,3.676-3.038,2.057-5.928
		C950.149,1572.614,940.84,1557.438,928.88,1545.918z"/>
	<path style="fill:#92A9D8;" d="M642.4,789.287c5.006-1.51,10.74-4.616,6.84-10.408c-3.171-4.709-17.664-5.836-16.823-12.897
		c5.921-3.498,16.053,6.79,23.766,3.483c0.033-10.104-18.016-17.115-25.538-21.141c-5.886-3.15-24.23-8.698-24.867-16.948
		c5.57-0.749,13.698,4.2,18.513,6.48c7.226,3.421,13.885,8.392,21.41,11.119c3.696,1.34,10.136,4.234,12.302-0.762
		c1.771-4.082-5.88-9.076-5.862-13.365c4.63-3.137,16.451,7.99,15.05-3.945c-0.59-5.02-8.179-13.372-10.861-17.175
		c-4.082-5.79-13.44-15.829-10.831-23.656c7.458-0.341,12.425,10.774,15.778,15.888c5.606,8.551,12.079,18.762,23.144,19.088
		c0.48-4.388-6.494-24.454,2.308-24.159c7.086,0.237,10.144,15.313,17.116,17.919c6.088-2.307-3.182-19.126-1.351-24.586
		c2.02-6.026,5.276-3.175,7.939,0.732c2.04,2.994,2.786,10.77,6.549,12.083c2.563,0.894,4.765-0.221,5.205-3.504
		c-4.205-16.02-2.535-33.746-5.18-50.139c-2.287-14.174-5.372-28.243-10.668-41.564c-2.569-6.463-9.651-21.416-17.355-22.917
		c-9.104-1.774-1.265,10.179-5.056,14.781c-2.89-1.938-6.431-8.459-10.576-8.4c-5.671,0.081-7.533,11.483-7.163,15.877
		c0.747,8.88,2.634,19.142,4.728,27.815c2.676,11.084,13.301,27.587,7.062,38.795c-4.206-2.932-6.694-10.59-9.2-15.257
		c-3.309-6.161-6.391-12.647-10.332-18.43c-4.263-6.254-12.039-18.166-19.529-20.511c-0.182,4.159,2.428,8.007,0.76,12.087
		c-4.213-5.69-22.857-22.858-21.87-6.561c0.537,8.86,2.371,18.936,5.321,27.24c2.927,8.239,14.591,21.775,11.205,30.505
		c-4.454-0.342-7.862-6.769-11.015-9.641c-2.896-2.638-6.392-5.254-9.764-7.263c-3.779-2.251-15.354-7.352-19.445-5.193
		c1.168,5.161,7.299,8.673,5.829,14.564c-5.031-0.024-16.835-14.838-20.595-4.332c-3.617,10.107,9.882,18.732,7.576,28.971
		c-2.249-0.833-3.985-2.666-6.498-2.677c-3.952,7.507,18.463,16.173,14.487,25.227c-3.376-0.904-6.356-3.941-9.847-5.407
		c-3.58-1.503-7.819-2.492-11.622-3.284c-4.245-0.885-16.712-3.713-19.113,1.207c-2.319,4.753,5.87,6.869,4.348,12.056
		c-1.665,5.672-17.067-1.275-16.115,8.245c6.153,3.231,10.507,5.426,17.39,7.177c4.215,1.073,25.418,11.104,17.536,17.255
		c-6.094-0.588-21.212-7.328-26.667-3.428c-4.447,3.179,0.768,5.349,4.667,7.172c15.047,7.034,31.343,11.597,47.044,16.938
		C614.506,788.514,629.76,793.099,642.4,789.287z"/>
	<path style="fill:#92A9D8;" d="M1097.587,531.329c3.811-3.321,6.419-14.301,8.044-18.661c2.474-6.638,5.476-20.03,13.41-22.295
		c4.493,5.962-1.877,16.338-4.205,21.993c-3.892,9.455-8.666,20.563-2.687,29.879c3.892-2.081,16.517-19.167,21.242-11.735
		c3.805,5.982-6.912,17.018-5.126,24.244c5.342,3.722,13.989-13.425,19.53-14.997c6.115-1.735,5.6,2.562,3.878,6.966
		c-1.319,3.375-7.316,8.381-6.276,12.228c0.709,2.621,2.873,3.808,5.832,2.318c10.848-12.516,26.421-21.145,38.458-32.584
		c10.408-9.891,20.278-20.38,28.282-32.272c3.883-5.77,12.227-20.058,9.116-27.264c-3.677-8.515-9.115,4.703-15.054,4.172
		c-0.032-3.479,3.351-10.084,0.962-13.471c-3.269-4.634-13.731,0.266-17.149,3.052c-6.908,5.631-14.313,12.982-20.288,19.606
		c-7.638,8.467-15.26,26.554-28.033,27.732c0.045-5.126,4.962-11.504,7.399-16.207c3.217-6.209,6.83-12.416,9.377-18.934
		c2.755-7.049,8.197-20.193,5.904-27.699c-3.536,2.198-5.239,6.525-9.548,7.452c2.317-6.689,5.962-31.771-6.933-21.756
		c-7.01,5.445-14.291,12.649-19.478,19.772c-5.147,7.068-9.734,24.337-18.851,26.472c-2.233-3.869,1.148-10.31,1.738-14.534
		c0.542-3.88,0.728-8.242,0.481-12.16c-0.275-4.39-2.601-16.823-6.692-18.981c-3.6,3.878-3.037,10.922-8.73,13.034
		c-2.82-4.166,2.743-22.273-8.052-19.444c-10.384,2.72-9.882,18.732-19.634,22.61c-0.582-2.326-0.05-4.794-1.46-6.874
		c-8.427,0.976-2.924,24.37-12.642,26.2c-1.159-3.297-0.336-7.472-1.097-11.18c-0.781-3.804-2.358-7.86-3.852-11.446
		c-1.666-4.004-6.371-15.889-11.788-15.093c-5.233,0.769-2.356,8.723-7.495,10.394c-5.621,1.829-8.584-14.806-15.904-8.645
		c0.806,6.902,1.455,11.736,3.895,18.406c1.494,4.084,5.187,27.248-4.341,24.215c-2.955-5.362-5.928-21.645-12.227-23.946
		c-5.134-1.875-3.982,3.654-3.285,7.902c2.69,16.391,8.125,32.417,12.581,48.392c3.4,12.186,8.227,27.365,18.511,35.645
		c4.072,3.279,9.873,6.258,12.452-0.232c2.096-5.276-5.157-17.873,1.146-21.167c6.23,2.912,3.459,17.083,10.543,21.582
		c8.358-5.677,3.954-24.533,3.03-33.014c-0.723-6.637-6.501-24.909-0.052-30.093c3.764,4.175,4.268,13.677,5.105,18.939
		c1.256,7.895,0.913,16.199,2.911,23.949c0.981,3.807,2.229,10.756,7.575,9.724c4.369-0.844,4.172-9.978,7.722-12.384
		C1091.038,523.185,1088.527,539.224,1097.587,531.329z"/>
	<path style="fill:#92A9D8;" d="M865.916,251.111c4.642,11.769,11.014,26.367,22.1,33.538c4.39,2.84,10.468,5.203,12.361-1.519
		c1.539-5.464-6.979-17.244-1.05-21.171c6.498,2.252,5.208,16.633,12.72,20.375c7.725-6.512,1.394-24.81-0.402-33.151
		c-1.406-6.526-9.044-24.103-3.166-29.926c4.175,3.763,5.66,13.162,7.037,18.309c2.066,7.723,2.584,16.017,5.373,23.519
		c1.37,3.686,3.33,10.468,8.541,8.888c4.258-1.291,3.117-10.356,6.398-13.117c5.388,1.501,4.55,17.714,12.745,8.923
		c3.446-3.698,4.905-14.888,6.07-19.394c1.774-6.858,3.374-20.489,11.031-23.563c5.086,5.466-0.177,16.445-1.907,22.309
		c-2.894,9.807-6.492,21.349,0.419,29.997c3.656-2.472,14.445-20.773,19.914-13.87c4.403,5.556-5.114,17.642-2.59,24.644
		c5.697,3.15,12.525-14.801,17.873-16.937c5.903-2.358,5.835,1.969,4.578,6.527c-0.963,3.493-6.41,9.093-4.977,12.811
		c0.976,2.534,3.251,3.49,6.04,1.702c9.495-13.572,24.092-23.766,34.88-36.389c9.328-10.914,18.061-22.369,24.792-35.025
		c3.265-6.141,10.086-21.215,6.246-28.06c-4.538-8.089-8.58,5.621-14.542,5.708c-0.392-3.457,2.29-10.377-0.437-13.499
		c-3.731-4.271-13.63,1.685-16.741,4.81c-6.288,6.315-12.892,14.393-18.15,21.6c-6.721,9.212-12.431,27.991-25.014,30.484
		c-0.485-5.104,3.745-11.956,5.682-16.886c2.558-6.509,5.509-13.055,7.368-19.802c2.011-7.296,6.063-20.932,3.005-28.161
		c-3.29,2.552-4.535,7.032-8.725,8.399c1.613-6.893,2.642-32.218-9.146-20.921c-6.409,6.142-12.906,14.059-17.328,21.68
		c-4.388,7.562-7.163,25.214-16.011,28.281c-2.621-3.618,0.075-10.374,0.225-14.636c0.138-3.915-0.129-8.273-0.779-12.145
		c-0.728-4.338-4.327-16.463-8.62-18.186c-3.18,4.229-1.891,11.176-7.334,13.867c-3.237-3.852,0.423-22.437-10.021-18.506
		c-10.046,3.78-7.89,19.654-17.189,24.52c-0.82-2.254-0.546-4.763-2.163-6.686c-8.282,1.843-0.387,24.542-9.863,27.367
		c-1.494-3.16-1.107-7.396-2.248-11.007c-1.17-3.702-3.159-7.573-5.015-10.986c-2.072-3.81-7.982-15.145-13.287-13.792
		c-5.125,1.306-1.44,8.919-6.379,11.114c-5.402,2.4-10.07-13.839-16.713-6.953c1.516,6.782,2.661,11.522,5.778,17.904
		c1.909,3.908,7.978,26.566-1.812,24.535c-3.494-5.027-8.135-20.915-14.638-22.552c-5.3-1.334-3.582,4.047-2.45,8.2
		C852.767,220.306,859.831,235.684,865.916,251.111z"/>
	<path style="fill:#92A9D8;" d="M634.876,389.844c-5.941-1.476-19.906-10.362-25.875-7.305c-4.865,2.491-0.025,5.404,3.564,7.779
		c13.852,9.167,29.301,16.072,44.048,23.66c11.25,5.788,25.665,12.562,38.728,10.646c5.173-0.759,11.301-2.99,8.293-9.292
		c-2.445-5.123-16.616-8.365-14.747-15.227c6.37-2.591,14.883,9.073,22.997,6.933c1.516-9.989-15.308-19.574-22.158-24.66
		c-5.36-3.98-22.691-12.16-22.11-20.414c5.62,0.077,12.934,6.165,17.362,9.127c6.645,4.444,12.503,10.339,19.546,14.141
		c3.459,1.868,9.404,5.675,12.281,1.052c2.351-3.778-4.484-9.841-3.837-14.081c5.041-2.424,15.1,10.319,15.466-1.693
		c0.154-5.052-6.128-14.428-8.222-18.584c-3.189-6.326-10.971-17.63-7.241-24.99c7.427,0.757,10.709,12.482,13.274,18.031
		c4.291,9.282,9.194,20.332,20.092,22.278c1.118-4.269-2.835-25.142,5.829-23.558c6.974,1.275,7.786,16.637,14.301,20.237
		c6.36-1.388-0.341-19.386,2.271-24.518c2.883-5.665,5.685-2.366,7.746,1.889c1.579,3.261,1.175,11.063,4.705,12.914
		c2.405,1.261,4.745,0.48,5.664-2.702c-1.809-16.464,2.446-33.752,2.235-50.357c-0.182-14.357-1.168-28.726-4.452-42.68
		c-1.592-6.77-6.403-22.601-13.804-25.216c-8.745-3.09-2.745,9.883-7.171,13.879c-2.574-2.341-5.119-9.312-9.228-9.861
		c-5.621-0.751-9.136,10.253-9.416,14.654c-0.565,8.894-0.204,19.322,0.594,28.207c1.02,11.357,9.107,29.241,1.291,39.411
		c-3.73-3.517-5.067-11.458-6.861-16.442c-2.368-6.581-4.466-13.449-7.516-19.748c-3.298-6.811-9.242-19.736-16.307-23.155
		c-0.791,4.087,1.226,8.277-1.022,12.068c-3.332-6.246-19.254-25.966-20.67-9.7c-0.77,8.843-0.435,19.079,1.265,27.725
		c1.686,8.579,11.237,23.681,6.607,31.82c-4.356-0.992-6.783-7.85-9.481-11.154c-2.477-3.035-5.551-6.135-8.593-8.618
		c-3.407-2.781-14.108-9.526-18.471-7.991c0.397,5.277,5.946,9.651,3.627,15.263c-4.972-0.762-14.474-17.149-19.736-7.309
		c-5.062,9.466,7.025,19.98,3.241,29.77c-2.102-1.154-3.551-3.221-6.035-3.601c-5.011,6.845,15.89,18.708,10.628,27.08
		c-3.207-1.39-5.709-4.832-8.947-6.794c-3.321-2.013-7.368-3.612-11.014-4.955c-4.069-1.498-15.985-6.125-19.083-1.611
		c-2.992,4.361,4.797,7.656,2.531,12.563c-2.479,5.366-16.695-3.766-17.15,5.791c5.611,4.1,9.597,6.909,16.148,9.652
		C624.074,371.882,643.576,384.917,634.876,389.844z"/>
	<path style="fill:#92A9D8;" d="M1030.126,1233.487c-6.381-10.035-13.333-19.727-21.723-28.127
		c-4.07-4.075-14.353-13.133-20.705-11.752c-7.506,1.631,2.37,8.157,0.993,12.9c-2.833-0.528-7.661-4.33-10.795-2.928
		c-4.287,1.918-1.971,11.202-0.251,14.423c3.475,6.511,8.27,13.7,12.703,19.612c5.665,7.556,19.15,16.632,18.073,27.201
		c-4.159-0.853-8.56-5.865-11.994-8.595c-4.534-3.604-9.003-7.529-13.894-10.638c-5.29-3.362-15.105-9.878-21.57-9.21
		c1.223,3.224,4.468,5.297,4.535,8.946c-5.067-2.949-24.872-9.907-18.785,2.169c3.309,6.564,8.003,13.629,12.966,18.98
		c4.924,5.309,18.229,11.788,18.511,19.538c-3.5,1.198-8.196-2.576-11.536-3.729c-3.067-1.059-6.582-1.904-9.806-2.328
		c-3.612-0.475-14.087-0.567-16.492,2.415c2.578,3.544,8.392,4.208,9.202,9.171c-3.835,1.629-17.664-5.776-17.085,3.447
		c0.557,8.873,13.65,11.015,15.248,19.559c-1.983,0.103-3.904-0.723-5.819,0.092c-0.549,7.004,19.34,6.258,19.28,14.448
		c-2.865,0.417-6.126-0.917-9.262-0.89c-3.215,0.029-6.764,0.665-9.916,1.307c-3.519,0.716-13.928,2.647-14.144,7.176
		c-0.209,4.375,6.714,3.304,7.254,7.747c0.591,4.86-13.401,4.618-9.56,11.549c5.738,0.444,9.769,0.687,15.579-0.234
		c3.558-0.563,22.972,0.126,18.989,7.386c-4.828,1.548-18.536,1.37-21.409,6.122c-2.342,3.874,2.335,3.818,5.898,3.928
		c13.75,0.425,27.641-1.439,41.333-2.515c10.446-0.822,23.55-2.327,31.918-9.366c3.313-2.787,6.659-7.028,1.796-10.157
		c-3.954-2.544-15.348,1.343-17.02-4.304c3.359-4.599,14.435-0.09,19.219-5.131c-3.282-7.696-19.308-7.121-26.349-7.721
		c-5.509-0.47-21.28,1.315-24.465-4.751c3.992-2.394,11.796-1.29,16.205-1.132c6.616,0.237,13.311,1.839,19.928,1.45
		c3.251-0.191,9.096-0.097,9.109-4.607c0.011-3.685-7.444-4.98-8.835-8.249c2.495-3.902,15.13,0.693,10.157-7.927
		c-2.092-3.627-10.6-7.496-13.885-9.511c-5.001-3.068-15.407-7.641-15.984-14.45c5.562-2.701,12.979,4.129,17.204,6.921
		c7.064,4.67,15.331,10.319,23.855,6.944c-1.071-3.495-12.947-16.477-6.154-19.134c5.468-2.139,12.73,8.328,18.887,8.028
		c3.877-3.748-8.682-13.508-9.077-18.261c-0.436-5.246,2.974-4.143,6.279-2.042c2.532,1.609,5.646,7.281,8.938,7.048
		c2.243-0.159,3.552-1.728,2.813-4.37C1042.037,1259.123,1037.505,1245.092,1030.126,1233.487z"/>
	<path style="fill:#92A9D8;" d="M1008.721,838.027c-4.15-1.827-10.521,6.627-12.733,9.457c-1.981,2.535-4.133,5.427-5.593,8.292
		c-1.424,2.794-1.685,6.308-3.336,8.685c-7.356-3.599,2.185-21.067-4.329-23.7c-1.583,1.351-1.701,3.438-2.678,5.167
		c-6.934-5.242-3.01-17.916-10.702-22.372c-7.996-4.633-7.538,11.047-10.707,13.753c-4.081-2.939-2.081-8.439-4.103-12.327
		c-3.741,0.823-8.333,10.238-9.519,13.682c-1.059,3.074-1.87,6.597-2.292,9.815c-0.458,3.502,0.824,9.389-1.81,11.987
		c-6.81-3.711-6.672-18.508-9.227-25.284c-2.574-6.829-6.803-14.181-11.202-20.072c-8.091-10.834-10.7,9.994-10.322,15.845
		c-3.236-1.688-3.643-5.517-5.983-8.05c-3.482,5.488-2.03,17.18-1.381,23.414c0.6,5.765,2.119,11.515,3.322,17.181
		c0.911,4.291,3.433,10.465,2.341,14.568c-9.939-3.751-12.046-19.869-16.28-28.31c-3.314-6.604-7.608-14.103-11.885-20.118
		c-2.116-2.977-9.39-9.191-13.02-6.21c-2.653,2.179-1.405,8.197-2.196,10.967c-4.858-0.883-6.293-12.633-11.102-6.644
		c-4.07,5.069-0.552,18.313,1.279,23.774c3.775,11.256,9.347,21.803,15.481,31.99c7.094,11.781,17.629,22.098,23.537,34.478
		c2.035,1.84,4.023,1.369,5.166-0.568c1.677-2.843-2.01-8.16-2.32-11.144c-0.406-3.895,0.129-7.439,4.629-4.708
		c4.078,2.474,7.21,18.068,12.294,16.271c3.016-5.376-3.112-16.545,1.241-20.484c5.409-4.894,11.729,11.526,14.379,14.044
		c6.823-6.122,5.456-16.042,4.429-24.448c-0.615-5.026-3.418-14.712,1.481-18.484c5.836,3.555,5.287,14.908,5.801,20.752
		c0.338,3.839,0.005,13.18,2.316,16.669c5.497,8.298,7.021-5.061,11.627-5.553c2.305,2.703,0.138,9.952,3.44,11.587
		c4.042,2.001,6.567-3.273,8.188-6.097c3.3-5.748,4.853-12.454,7.593-18.481c1.826-4.017,4.32-11.493,8.243-13.998
		c4.008,5.558-4.625,18.875-6.663,24.016c-2.604,6.569-10.268,20.654-4.844,27.026c6.646-2.033,7.552-13.957,13.167-14.912
		c4.308,4.016-4.254,12.479-3.742,17.152c0.631,5.749,5.918,4.646,9.891,2.925c10.033-4.348,17.227-15.405,22.623-24.386
		c7.073-11.774,14.938-23.374,20.692-35.869c1.491-3.238,3.628-7.4-0.884-7.032c-5.536,0.451-11.492,12.798-15.031,16.428
		c-8.274,0.326-0.229-17.357,1.862-20.289c3.415-4.789,4.997-8.505,7.159-13.839c-4.489-6.53-10.514,6.099-14.6,3.403
		C1008.683,845.51,1012.73,839.793,1008.721,838.027z"/>
	<path style="fill:#92A9D8;" d="M1306.397,909.396c6.115-1.735,5.6,2.562,3.879,6.966c-1.319,3.374-7.316,8.381-6.276,12.228
		c0.709,2.621,2.873,3.808,5.831,2.318c10.849-12.516,26.421-21.146,38.458-32.584c10.408-9.891,20.279-20.38,28.282-32.272
		c3.883-5.769,12.228-20.058,9.116-27.263c-3.676-8.515-9.115,4.703-15.054,4.172c-0.032-3.479,3.351-10.083,0.961-13.471
		c-3.269-4.634-13.731,0.266-17.149,3.052c-6.908,5.631-14.313,12.982-20.288,19.606c-7.637,8.467-15.26,26.554-28.033,27.732
		c0.045-5.126,4.961-11.504,7.399-16.207c3.217-6.209,6.83-12.416,9.377-18.934c2.755-7.049,8.196-20.192,5.903-27.699
		c-3.536,2.198-5.239,6.525-9.547,7.452c2.318-6.689,5.961-31.771-6.933-21.755c-7.01,5.446-14.291,12.648-19.478,19.771
		c-5.148,7.068-9.734,24.338-18.852,26.472c-2.233-3.869,1.149-10.31,1.739-14.534c0.542-3.88,0.727-8.242,0.481-12.16
		c-0.276-4.39-2.601-16.824-6.693-18.981c-3.601,3.878-3.037,10.921-8.73,13.033c-2.82-4.166,2.743-22.272-8.052-19.444
		c-10.384,2.721-9.882,18.732-19.634,22.61c-0.582-2.326-0.05-4.794-1.459-6.874c-8.427,0.976-2.924,24.37-12.642,26.199
		c-1.16-3.297-0.336-7.471-1.097-11.18c-0.78-3.804-2.358-7.86-3.851-11.447c-1.666-4.003-6.372-15.889-11.788-15.093
		c-5.232,0.769-2.356,8.723-7.495,10.395c-5.621,1.828-8.584-14.806-15.904-8.645c0.807,6.902,1.455,11.736,3.895,18.405
		c1.494,4.085,5.187,27.249-4.341,24.215c-2.955-5.362-5.928-21.645-12.227-23.946c-5.134-1.875-3.981,3.654-3.284,7.902
		c2.69,16.391,8.124,32.417,12.581,48.392c3.4,12.186,8.227,27.364,18.511,35.644c4.073,3.279,9.874,6.258,12.452-0.231
		c2.096-5.276-5.157-17.874,1.146-21.167c6.23,2.912,3.459,17.083,10.544,21.582c8.357-5.677,3.954-24.533,3.03-33.014
		c-0.723-6.637-6.501-24.909-0.052-30.093c3.763,4.175,4.268,13.677,5.105,18.939c1.256,7.895,0.913,16.199,2.911,23.949
		c0.981,3.807,2.229,10.756,7.575,9.724c4.369-0.844,4.172-9.977,7.722-12.384c5.203,2.051,2.693,18.09,11.753,10.194
		c3.811-3.321,6.419-14.301,8.044-18.661c2.474-6.638,5.475-20.03,13.41-22.295c4.493,5.963-1.877,16.339-4.205,21.993
		c-3.892,9.455-8.666,20.563-2.688,29.879c3.893-2.081,16.517-19.167,21.243-11.735c3.804,5.982-6.912,17.018-5.126,24.244
		C1292.209,928.116,1300.857,910.969,1306.397,909.396z"/>
	<path style="fill:#92A9D8;" d="M1515.396,1280.126c-5.546-7.434-7.781,6.683-13.681,7.541c-0.836-3.378,0.928-10.586-2.18-13.329
		c-4.252-3.752-13.297,3.434-15.978,6.936c-5.418,7.075-10.922,15.94-15.203,23.766c-5.473,10.005-8.705,29.364-20.859,33.464
		c-1.142-4.998,2.166-12.339,3.449-17.479c1.694-6.785,3.773-13.659,4.744-20.589c1.05-7.495,3.304-21.541-0.663-28.313
		c-2.932,2.956-3.587,7.559-7.565,9.458c0.707-7.044-1.548-32.289-11.776-19.562c-5.56,6.919-10.978,15.61-14.377,23.74
		c-3.373,8.067-3.841,25.928-12.217,30.114c-3.068-3.248-1.268-10.296-1.671-14.542c-0.37-3.9-1.198-8.187-2.344-11.942
		c-1.284-4.207-6.421-15.765-10.901-16.918c-2.606,4.605-0.429,11.328-5.479,14.699c-3.707-3.401-2.484-22.303-12.331-17.054
		c-9.473,5.048-5.281,20.51-13.872,26.538c-1.104-2.128-1.158-4.652-3.01-6.35c-7.973,2.899,2.792,24.386-6.239,28.414
		c-1.89-2.94-2.054-7.192-3.653-10.624c-1.639-3.52-4.112-7.101-6.394-10.245c-2.547-3.51-9.874-13.985-14.959-11.957
		c-4.913,1.958-0.274,9.031-4.888,11.846c-5.046,3.079-11.776-12.419-17.472-4.732c2.381,6.529,4.13,11.081,8.046,17.006
		c2.398,3.628,11.349,25.31,1.378,24.563c-4.115-4.533-10.773-19.687-17.433-20.469c-5.429-0.637-3.028,4.476-1.368,8.447
		c6.408,15.324,15.402,29.659,23.432,44.169c6.125,11.07,14.333,24.72,26.253,30.397c4.721,2.249,11.054,3.805,12.061-3.105
		c0.819-5.618-9.15-16.196-3.78-20.858c6.735,1.392,7.316,15.82,15.249,18.558c6.818-7.456-1.827-24.782-4.688-32.82
		c-2.238-6.29-12.086-22.73-7.01-29.265c4.627,3.191,7.315,12.319,9.347,17.245c3.048,7.39,4.634,15.548,8.371,22.627
		c1.835,3.477,4.656,9.949,9.618,7.708c4.056-1.831,1.751-10.672,4.648-13.835c5.537,0.791,6.804,16.976,13.792,7.2
		c2.939-4.112,2.938-15.398,3.51-20.016c0.871-7.031,0.694-20.753,7.89-24.792c5.75,4.761,1.952,16.329,0.995,22.369
		c-1.6,10.099-3.676,22.01,4.296,29.69c3.306-2.925,11.636-22.468,17.953-16.33c5.085,4.94-2.788,18.155,0.62,24.771
		c6.058,2.386,10.505-16.296,15.531-19.106c5.548-3.102,6.041,1.197,5.385,5.879c-0.503,3.588-5.18,9.846-3.278,13.348
		c1.296,2.386,3.675,3.04,6.209,0.906c7.659-14.686,20.815-26.683,29.879-40.596c7.838-12.03,15.015-24.517,20.052-37.938
		C1515.276,1302.248,1520.09,1286.417,1515.396,1280.126z"/>
	<path style="fill:#92A9D8;" d="M1191.56,965.685c4.252-1.703,6.851-3.475,10.511-6.061c-0.197-6.168-9.457-0.423-11.001-3.908
		c-1.412-3.187,3.645-5.233,1.759-8.075c-1.952-2.943-9.683-0.08-12.323,0.845c-2.365,0.829-4.991,1.82-7.153,3.084
		c-2.108,1.233-3.756,3.427-5.839,4.291c-3.309-5.452,10.29-12.89,7.127-17.355c-1.605,0.22-2.561,1.539-3.928,2.261
		c-2.34-6.351,5.56-13.009,2.392-19.164c-3.294-6.399-9.587,4.072-12.801,4.513c-1.439-3.643,2.184-6.407,2.494-9.806
		c-2.799-1.034-9.767,3.207-11.993,4.966c-1.986,1.57-4,3.538-5.628,5.47c-1.773,2.103-3.408,6.501-6.227,7.097
		c-2.904-5.296,3.408-14.937,4.582-20.453c1.183-5.559,1.504-12.156,1.097-17.867c-0.749-10.504-11.216,2.052-13.428,6.046
		c-1.412-2.467-0.068-5.148-0.537-7.792c-4.59,2.133-8.554,10.408-10.75,14.767c-2.031,4.031-3.452,8.439-5.046,12.658
		c-1.207,3.196-2.15,8.303-4.59,10.534c-4.938-6.638,0.458-18.088,1.231-25.402c0.605-5.722,0.943-12.443,0.669-18.184
		c-0.136-2.841-2.292-9.972-5.924-9.545c-2.655,0.313-4.367,4.782-6.051,6.266c-2.813-2.622,1.187-10.927-4.483-9.023
		c-4.799,1.612-8.061,11.772-9.157,16.122c-2.259,8.965-3.04,18.221-3.303,27.478c-0.304,10.706,2.265,21.897,0.932,32.496
		c0.56,2.062,2.062,2.589,3.625,1.8c2.295-1.158,2.113-6.193,3.165-8.28c1.371-2.723,3.212-4.822,5.014-1.14
		c1.633,3.336-2.871,14.875,1.217,15.834c4.237-2.256,4.916-12.154,9.427-12.906c5.603-0.934,2.842,12.487,3.52,15.252
		c7.047-1.145,10.322-8.221,13.182-14.163c1.711-3.553,3.946-11.081,8.743-11.494c2.331,4.784-2.802,11.994-4.923,16.042
		c-1.392,2.658-5.538,8.641-5.49,11.901c0.114,7.75,6.73-0.366,9.956,1.248c0.375,2.741-4.094,6.581-2.617,9.042
		c1.808,3.01,5.681,0.615,7.931-0.554c4.58-2.38,8.418-6.123,12.748-8.922c2.886-1.865,7.664-5.717,11.289-5.71
		c0.291,5.328-10.968,10.428-14.465,12.941c-4.469,3.211-15.415,9.222-14.539,15.679c5.212,1.462,10.819-5.973,14.901-4.238
		c1.135,4.444-8.036,6.391-9.665,9.67c-2.004,4.033,1.926,5.534,5.255,6.075c8.405,1.368,17.769-2.855,25.082-6.473
		c9.587-4.744,19.619-9.041,28.645-14.812c2.339-1.496,5.489-3.325,2.377-4.981c-3.818-2.032-12.914,3.557-16.76,4.449
		C1176.247,974.936,1188.956,966.727,1191.56,965.685z"/>
</g>
</svg>
